<?xml version="1.0" encoding="utf-8"?>
<!-- Generator: Adobe Illustrator 16.0.0, SVG Export Plug-In . SVG Version: 6.00 Build 0)  -->
<!DOCTYPE svg PUBLIC "-//W3C//DTD SVG 1.1//EN" "http://www.w3.org/Graphics/SVG/1.1/DTD/svg11.dtd">
<svg version="1.1" id="Logo" xmlns="http://www.w3.org/2000/svg" xmlns:xlink="http://www.w3.org/1999/xlink" x="0px" y="0px"
	 width="1000px" height="1000px" viewBox="0 0 1000 1000" enable-background="new 0 0 1000 1000" xml:space="preserve">
<g id="Pig">
	<g>
		<g>
			<g>
				<g>
					<path fill="#FBCBC5" d="M167.985,382.223c0,0-60.702-56.371,20.218-225.371c5.317-15.677,73.26,30.014,156.847,109.752"/>
				</g>
			</g>
		</g>
		<g>
			<g>
				<g>
					<path fill="#FFFFFF" d="M160.889,389.884l14.208-15.323l-7.112,7.661l7.209-7.58c-0.517-0.536-52.654-54.187,20.877-209.988
						c14.596,3.916,65.327,36.625,141.769,109.514l14.417-15.113C330.667,238.42,221.22,135.471,188.932,143.874
						c-5.108,1.227-8.971,4.75-10.637,9.633C95.486,326.273,158.191,387.359,160.889,389.884z"/>
				</g>
			</g>
		</g>
	</g>
	<g>
		<g>
			<g>
				<g>
					<path fill="#FBCBC5" d="M857.205,382.037c0,0,60.702-56.372-20.215-225.372c-5.316-15.677-73.262,30.014-156.848,109.752"/>
				</g>
			</g>
		</g>
		<g>
			<g>
				<g>
					<path fill="#FFFFFF" d="M864.302,389.698l-14.206-15.322l7.109,7.662l-7.207-7.58c0.517-0.535,52.653-54.187-20.878-209.987
						c-14.595,3.915-65.326,36.625-141.771,109.513l-14.415-15.113c21.591-20.636,131.038-123.585,163.326-115.183
						c5.107,1.228,8.97,4.75,10.636,9.633C929.704,326.087,867.002,387.173,864.302,389.698z"/>
				</g>
			</g>
		</g>
	</g>
	<g>
		<g>
			<path fill="#FBCBC5" d="M315.452,247.026c57.934-31.354,125.058-49.283,196.61-49.283c218.776,0,396.127,167.575,396.127,374.282
				c0,206.712-177.351,374.286-396.127,374.286c-218.774,0-396.126-167.574-396.126-374.286
				c0-114.008,53.95-216.114,139.043-284.762"/>
		</g>
	</g>
	<g>
		<g>
			
				<path fill="#F3C3D1" stroke="#010101" stroke-width="7" stroke-linecap="round" stroke-linejoin="round" stroke-miterlimit="10" d="
				M316.104,247.026"/>
		</g>
	</g>
	<g>
		<g>
			<g>
				<path fill="#FFFFFF" d="M525.109,74.815c13.19,8.068,25.525,17.818,30.383,33.111c6.658,20.965-15.555,34.862-32.485,39.67
					c-7.132,2.027-13.333-0.061-19.915-2.225c-11.451-3.77-5.965-20.563,5.471-14.816c22.679,11.39,4.281,44.507-8.19,55.141
					c-11.404,9.721,3.915,27.103,15.262,17.422c26.793-22.826,40.356-74.465,1.812-93.824
					c-26.657-13.397-57.089,14.467-43.625,41.831c16.608,33.745,68.595,18.952,89.258,0.416c35.671-32,7.519-76.039-25.049-95.962
					C525.299,47.795,512.373,67.023,525.109,74.815L525.109,74.815z"/>
			</g>
		</g>
	</g>
	<g>
		<g>
			<circle fill="#FFFFFF" cx="712.767" cy="406.23" r="42.193"/>
		</g>
	</g>
	<g>
		<g>
			<path fill="#FFFFFF" d="M512.094,735.336c-90.598,0-164.305-73.704-164.305-164.307c0-90.595,73.708-164.305,164.305-164.305
				c90.6,0,164.309,73.709,164.309,164.305C676.402,661.632,602.693,735.336,512.094,735.336z M512.094,427.573
				c-79.102,0-143.457,64.354-143.457,143.456c0,79.103,64.355,143.457,143.457,143.457c79.104,0,143.459-64.354,143.459-143.457
				C655.553,491.928,591.198,427.573,512.094,427.573z"/>
		</g>
	</g>
	<g>
		<g>
			<path fill="#FFFFFF" d="M423.386,815.99c-1.226,0-2.473-0.215-3.688-0.675c-74.029-28.015-130.729-87.158-155.562-162.264
				c-1.806-5.468,1.159-11.36,6.625-13.17c5.468-1.804,11.361,1.158,13.17,6.626c22.512,68.09,76.026,123.911,143.146,149.31
				c5.384,2.035,8.098,8.05,6.061,13.437C431.56,813.425,427.595,815.99,423.386,815.99z"/>
		</g>
	</g>
	<g>
		<g>
			<circle fill="#FFFFFF" cx="465.932" cy="570.536" r="21.346"/>
		</g>
	</g>
	<g>
		<g>
			<path fill="#FFFFFF" d="M579.604,570.536c0,11.79-9.558,21.343-21.343,21.343c-11.792,0-21.343-9.553-21.343-21.343
				c0-11.785,9.551-21.344,21.343-21.344C570.047,549.192,579.604,558.751,579.604,570.536z"/>
		</g>
	</g>
	<g>
		<g>
			<path fill="#FFFFFF" d="M343.821,416.655h-66.461c-5.139,0-9.304-4.666-9.304-10.425c0-5.759,4.166-10.424,9.304-10.424h66.461
				c5.14,0,9.305,4.666,9.305,10.424C353.125,411.989,348.96,416.655,343.821,416.655z"/>
		</g>
	</g>
	<g>
		<g>
			<path fill="#FFFFFF" d="M514.705,955.742c-225.067,0-408.173-172.136-408.173-383.717c0-211.579,183.106-383.711,408.173-383.711
				c225.066,0,408.172,172.132,408.172,383.711C922.877,783.606,739.771,955.742,514.705,955.742z M514.705,209.163
				c-213.572,0-387.324,162.781-387.324,362.863c0,200.086,173.752,362.868,387.324,362.868
				c213.571,0,387.323-162.782,387.323-362.868C902.028,371.944,728.276,209.163,514.705,209.163z"/>
		</g>
	</g>
</g>
</svg>
