<?xml version="1.0" encoding="utf-8"?>
<!-- Generator: Adobe Illustrator 16.0.0, SVG Export Plug-In . SVG Version: 6.00 Build 0)  -->
<!DOCTYPE svg PUBLIC "-//W3C//DTD SVG 1.1//EN" "http://www.w3.org/Graphics/SVG/1.1/DTD/svg11.dtd">
<svg version="1.1" id="Layer_1" xmlns="http://www.w3.org/2000/svg" xmlns:xlink="http://www.w3.org/1999/xlink" x="0px" y="0px"
	 width="283.46px" height="283.46px" viewBox="0 0 283.46 283.46" enable-background="new 0 0 283.46 283.46" xml:space="preserve">
<g id="Layer_2">
	<path fill="#FFFFFF" d="M140.603,50.777c-53.68,0-97.354,30.763-97.354,68.575c0,2.838,2.3,5.137,5.137,5.137h184.44
		c2.838,0,5.139-2.3,5.139-5.137C237.966,81.54,194.289,50.777,140.603,50.777z M140.603,61.053
		c45.434,0,82.826,23.415,86.729,53.163H53.88C57.78,84.468,95.175,61.053,140.603,61.053z"/>
	<path fill="#FFFFFF" d="M161.158,173.689c-0.846,0-1.701-0.207-2.486-0.646l-51.705-28.723h-63.28
		c-2.839,0-5.137-2.301-5.137-5.137s2.301-5.136,5.137-5.136h64.611c0.873,0,1.729,0.221,2.495,0.646l48.845,27.137l18.191-25.621
		c0.963-1.356,2.523-2.161,4.188-2.161h50.812c2.836,0,5.137,2.297,5.137,5.137c0,2.838-2.301,5.137-5.137,5.137h-48.16
		l-19.32,27.205C164.359,172.927,162.777,173.689,161.158,173.689z"/>
	<path fill="#FFFFFF" d="M242.039,178.359c0-9.379-9.094-17.014-20.266-17.014h-34.268c-2.838,0-5.139,2.301-5.139,5.137
		c0,2.838,2.301,5.137,5.139,5.137h34.266c5.414,0,9.988,3.084,9.988,6.738c0,0.32,0.039,0.631,0.096,0.934
		c-0.057,0.303-0.096,0.613-0.096,0.934c0,3.652-4.574,6.734-9.988,6.734h-32.436h-1.83H61.509c-0.445,0-0.869,0.076-1.281,0.184
		c-0.412-0.107-0.835-0.184-1.283-0.184c-5.414,0-9.986-3.082-9.986-6.734c0-0.32-0.039-0.631-0.095-0.934
		c0.058-0.303,0.095-0.613,0.095-0.934c0-3.652,4.572-6.738,9.986-6.738h71.333c2.839,0,5.139-2.299,5.139-5.137
		c0-2.836-2.3-5.137-5.139-5.137H58.945c-11.174,0-20.262,7.633-20.262,17.014c0,0.32,0.04,0.631,0.094,0.934
		c-0.056,0.303-0.094,0.615-0.094,0.934c0,9.377,9.091,17.012,20.262,17.012c0.445,0,0.869-0.074,1.283-0.18
		c0.412,0.104,0.836,0.18,1.281,0.18h125.998h1.832h32.438c11.17,0,20.266-7.633,20.266-17.012c0-0.318-0.039-0.631-0.098-0.934
		C242,178.988,242.039,178.679,242.039,178.359z"/>
	<path fill="none" stroke="#FFFFFF" stroke-width="10" stroke-linecap="round" stroke-miterlimit="10" d="M225.453,209.617
		c0,0-1.162,20.75-28.494,20.75c-17.789,0-55.77,0-55.77,0h-0.77c0,0-37.981,0-55.77,0c-27.332,0-28.496-20.75-28.496-20.75"/>
</g>
</svg>
