<?xml version="1.0" encoding="utf-8"?>
<!-- Generator: Adobe Illustrator 16.0.0, SVG Export Plug-In . SVG Version: 6.00 Build 0)  -->
<!DOCTYPE svg PUBLIC "-//W3C//DTD SVG 1.1//EN" "http://www.w3.org/Graphics/SVG/1.1/DTD/svg11.dtd">
<svg version="1.1" id="Layer_1" xmlns="http://www.w3.org/2000/svg" xmlns:xlink="http://www.w3.org/1999/xlink" x="0px" y="0px"
	 width="595.279px" height="841.891px" viewBox="0 0 595.279 841.891" enable-background="new 0 0 595.279 841.891"
	 xml:space="preserve">
<path fill="#FACBC5" d="M30.954,377.49c7.739,51.79,51.79,88.697,101.793,91.078c-12.501,46.432-42.86,64.886-79.768,75.601
	c-3.571,1.19-2.977,4.763-2.977,4.763l5.953,36.907c0,0,0.596,2.977,5.357,2.381c127.39-14.287,213.706-111.317,197.633-229.183
	c-14.882-81.554-78.576-113.104-137.51-104.77C62.504,263.791,22.026,318.557,30.954,377.49L30.954,377.49z M437.531,468.567
	c-11.905,46.432-43.455,64.886-79.768,75.601c-3.571,1.19-2.977,4.763-2.977,4.763l5.358,36.907c0,0,0.595,2.977,5.357,2.381
	c127.985-14.287,213.11-111.317,198.228-229.183c-15.477-81.554-79.768-113.104-138.104-104.77
	c-58.933,9.524-99.412,64.29-89.888,123.223C343.477,429.874,386.932,466.781,437.531,468.567z"/>
</svg>
