<?xml version="1.0" encoding="utf-8"?>
<!-- Generator: Adobe Illustrator 16.0.0, SVG Export Plug-In . SVG Version: 6.00 Build 0)  -->
<!DOCTYPE svg PUBLIC "-//W3C//DTD SVG 1.1//EN" "http://www.w3.org/Graphics/SVG/1.1/DTD/svg11.dtd">
<svg version="1.1" id="Layer_1" xmlns="http://www.w3.org/2000/svg" xmlns:xlink="http://www.w3.org/1999/xlink" x="0px" y="0px"
	 width="283.46px" height="283.46px" viewBox="0 0 283.46 283.46" enable-background="new 0 0 283.46 283.46" xml:space="preserve">
<path fill="#FFFFFF" d="M254.634,120.123h-11.272c0-14.921-10.11-27.061-22.543-27.061c-0.997,0-1.995,0.078-2.979,0.244
	c-4.039-8.589-11.745-14.076-20.275-13.758c-2.506-11.667-11.345-20.308-21.836-20.308c-10.688,0-19.668,8.978-21.973,20.979
	c-8.184,2.266-14.678,9.896-16.768,19.622c-7.558-0.318-14.34,4.036-18.618,10.799c-1.767-10.159-6.091-19.891-12.102-26.855
	c-7.045-8.167-18.51-10.596-30.655-13.174c-10.565-2.243-21.505-4.572-30.693-10.556c-5.06-3.288-9.997-1.24-11.784,4.082
	c-3.11,9.235,5.469,35.972,14.22,55.984H29.191c-3.115,0-5.636,3.025-5.636,6.762c0,0.014,0.004,0.026,0.004,0.039
	c0.024,55.938,37.936,101.437,84.541,101.437h67.627c46.619,0,84.542-45.518,84.542-101.471
	C260.27,123.148,257.746,120.123,254.634,120.123z M136.278,113.356c1.222,0,2.473,0.292,3.824,0.873
	c1.796,0.792,3.81,0.426,5.332-0.965c1.521-1.393,2.356-3.62,2.209-5.903c-0.015-0.146-0.076-0.627-0.095-0.767
	c0-7.464,5.057-13.529,11.271-13.529c3.11,0,5.636-3.028,5.636-6.765c0-7.464,5.059-13.531,11.271-13.531
	c6.215,0,11.272,6.065,11.269,13.359c-0.019,0.146-0.078,0.792-0.09,0.938c-0.146,2.281,0.69,4.513,2.209,5.903
	c1.527,1.388,3.549,1.757,5.332,0.964c1.354-0.581,2.604-0.874,3.824-0.874c5.036,0,9.488,4.125,10.818,10.018
	c0.422,1.867,1.488,3.436,2.933,4.292c1.435,0.869,3.12,0.939,4.608,0.218c7.44-3.593,15.457,3.388,15.457,12.532h-22.908
	c-0.771-4.091-2.924-7.532-6.364-9.835c-3.428-2.306-8.071-3.462-14.026-3.627c-10.371-5.987-17.979-7.139-23.841-3.523
	c-5.271,3.261-7.854,9.495-9.485,16.986h-28.887C128.528,116.1,132.121,113.356,136.278,113.356z M188.882,120.2
	c4.951,0.19,7.436,1.222,8.432,1.89c0.959,0.639,0.959,0.996,0.959,1.338c0,7.107-17.204,25.323-36.639,29.597
	c1.25-5.761,2.07-11.562,2.773-16.932c1.215-9.307,2.481-18.934,5.705-20.928c1.344-0.831,4.896-1.36,13.344,3.429 M84.47,120.12
	H60.016c-6.6-13.992-13.777-34.741-15.838-45.457c9.619,5.057,20.085,7.274,29.479,9.268c10.394,2.208,20.211,4.292,24.786,9.592
	c5.823,6.744,9.499,17.044,9.527,26.597h-8.004 M175.729,214.826h-67.628c-38.492,0-70.084-35.845-72.983-81.178h118.199
	c-0.015,0.12-0.032,0.225-0.048,0.345c-1.078,8.222-2.197,16.738-4.831,24.018c-0.007,0.007,0,0.014-0.007,0.027
	c-0.15,0.407-0.163,0.881-0.239,1.332c-0.073,0.436-0.217,0.875-0.217,1.307c0,0.007-0.005,0.023-0.005,0.023
	c0,0.228,0.085,0.422,0.105,0.646c0.053,0.651,0.116,1.299,0.321,1.909c0.142,0.416,0.384,0.744,0.595,1.117
	c0.188,0.354,0.334,0.74,0.59,1.049c0.392,0.48,0.879,0.828,1.381,1.158c0.146,0.09,0.244,0.248,0.396,0.328
	c0.009,0.008,0.015,0,0.022,0.008c0.634,0.324,1.332,0.487,2.065,0.514c0.052,0,0.104,0.041,0.154,0.041h0.005
	c20.871,0,45.66-16.801,53.434-33.825h41.67C245.813,178.982,214.222,214.826,175.729,214.826z"/>
</svg>
