<?xml version="1.0" encoding="utf-8"?>
<!-- Generator: Adobe Illustrator 16.0.0, SVG Export Plug-In . SVG Version: 6.00 Build 0)  -->
<!DOCTYPE svg PUBLIC "-//W3C//DTD SVG 1.1//EN" "http://www.w3.org/Graphics/SVG/1.1/DTD/svg11.dtd">
<svg version="1.1" id="Layer_1" xmlns="http://www.w3.org/2000/svg" xmlns:xlink="http://www.w3.org/1999/xlink" x="0px" y="0px"
	 width="283.46px" height="283.46px" viewBox="0 0 283.46 283.46" enable-background="new 0 0 283.46 283.46" xml:space="preserve">
<g>
	<g>
		<path fill="none" stroke="#FFFFFF" stroke-width="10" stroke-miterlimit="10" d="M39.791,119.939
			c-5.365-1.208-5.324-2.983,0.091-3.945l141.485-25.149c5.414-0.962,12.641,1.777,16.055,6.089l50.158,63.323
			c3.416,4.312,1.819,6.853-3.547,5.646L39.791,119.939z"/>
	</g>
	
		<polyline fill="none" stroke="#FFFFFF" stroke-width="10" stroke-linecap="round" stroke-linejoin="round" stroke-miterlimit="10" points="
		249.5,223.43 249.5,238.044 35.75,186.957 35.75,174.25 	"/>
	
		<polyline fill="none" stroke="#FFFFFF" stroke-width="10" stroke-linecap="round" stroke-linejoin="round" stroke-miterlimit="10" points="
		35.75,133.333 35.75,117.143 249.5,164.33 249.5,179.333 	"/>
	<g>
		<path fill="none" stroke="#FFFFFF" stroke-width="10" stroke-miterlimit="10" d="M254.998,194.277
			c1.074,0.234,1.953,1.326,1.953,2.428v12.801c0,1.101-0.878,1.802-1.951,1.56L28.836,159.941
			c-1.073-0.244-1.951-1.342-1.951-2.441v-11.035c0-1.102,0.879-1.809,1.954-1.573L254.998,194.277z"/>
	</g>
	
		<line fill="none" stroke="#FFFFFF" stroke-width="10" stroke-linecap="round" stroke-linejoin="round" stroke-miterlimit="10" x1="160.005" y1="80.542" x2="160.005" y2="110.143"/>
	
		<line fill="none" stroke="#FFFFFF" stroke-width="10" stroke-linecap="round" stroke-linejoin="round" stroke-miterlimit="10" x1="160.005" y1="47.5" x2="160.005" y2="57.143"/>
	
		<ellipse fill="none" stroke="#FFFFFF" stroke-width="10" stroke-miterlimit="10" cx="160.005" cy="69.307" rx="10.996" ry="11.235"/>
</g>
</svg>
