<?xml version="1.0" encoding="utf-8"?>
<!-- Generator: Adobe Illustrator 16.0.0, SVG Export Plug-In . SVG Version: 6.00 Build 0)  -->
<!DOCTYPE svg PUBLIC "-//W3C//DTD SVG 1.1//EN" "http://www.w3.org/Graphics/SVG/1.1/DTD/svg11.dtd">
<svg version="1.1" id="Layer_1" xmlns="http://www.w3.org/2000/svg" xmlns:xlink="http://www.w3.org/1999/xlink" x="0px" y="0px"
	 width="283.46px" height="283.46px" viewBox="0 0 283.46 283.46" enable-background="new 0 0 283.46 283.46" xml:space="preserve">
<g id="Layer_3">
	<g>
		<path fill="none" stroke="#FFFFFF" stroke-width="10" stroke-miterlimit="10" d="M207.369,164.593
			c4.61-2.014,3.938-1.438,11.394-7.088c18.829-14.527,13.271-54.34-17.22-54.34h-2.15c4.663-12.913-3.227-29.95-23.854-29.95
			c-33.713,0-55.954,7.532-55.954-14.885c-32.639,0-43.398,27.26-36.583,44.835h-0.718c-30.487,0-36.047,39.813-16.857,54.34
			c0,0,8.243,5.611,11.073,5.494"/>
		<path fill="none" stroke="#FFFFFF" stroke-width="10" stroke-miterlimit="10" d="M190,218.182c-2.119,4.834-4.479,7.858-10,7.858
			h-73.5c-5.522,0-7.952-3.106-10-7.858l-20-52.324c0-4.34,4.478-7.858,10-7.858H200c5.521,0,10,3.52,10,7.858L190,218.182z"/>
	</g>
</g>
</svg>
