<?xml version="1.0" encoding="utf-8"?>
<!-- Generator: Adobe Illustrator 16.0.0, SVG Export Plug-In . SVG Version: 6.00 Build 0)  -->
<!DOCTYPE svg PUBLIC "-//W3C//DTD SVG 1.1//EN" "http://www.w3.org/Graphics/SVG/1.1/DTD/svg11.dtd">
<svg version="1.1" id="Custom_x5F_Type" xmlns="http://www.w3.org/2000/svg" xmlns:xlink="http://www.w3.org/1999/xlink" x="0px"
	 y="0px" width="841.89px" height="141.732px" viewBox="0 0 841.89 141.732" enable-background="new 0 0 841.89 141.732"
	 xml:space="preserve">
<g id="Type">
	<g>
		<path fill="#FFFFFF" d="M50.912,29.195c0-1.303,1.042-2.476,2.345-2.476h30.884c25.15,0,45.739,20.458,45.739,45.478
			c0,25.281-20.589,45.74-45.739,45.74H53.257c-1.303,0-2.345-1.174-2.345-2.477V29.195z M82.577,102.039
			c16.94,0,29.32-12.77,29.32-29.841c0-16.939-12.379-29.71-29.32-29.71H67.722v59.551H82.577z"/>
	</g>
	<g>
		<path fill="#FFFFFF" d="M297.486,29.237c0-1.303,1.042-2.476,2.345-2.476h30.884c25.15,0,45.739,20.458,45.739,45.478
			c0,25.279-20.589,45.738-45.739,45.738h-30.884c-1.303,0-2.345-1.172-2.345-2.475V29.237z M329.151,102.082
			c16.94,0,29.32-12.771,29.32-29.842c0-16.94-12.379-29.71-29.32-29.71h-14.855v59.552H329.151z"/>
	</g>
	<g>
		<path fill="#FFFFFF" d="M478.062,29.237c0-1.303,1.042-2.476,2.346-2.476h30.883c25.15,0,45.739,20.458,45.739,45.478
			c0,25.279-20.589,45.738-45.739,45.738h-30.883c-1.304,0-2.346-1.172-2.346-2.475V29.237z M509.727,102.082
			c16.94,0,29.32-12.771,29.32-29.842c0-16.94-12.38-29.71-29.32-29.71h-14.855v59.552H509.727z"/>
	</g>
	<g>
		<path fill="#FFFFFF" d="M213.5,27.804c0-1.303,1.173-2.345,2.476-2.345h3.258l54.209,57.598h0.13V29.237
			c0-1.303,1.042-2.476,2.476-2.476h11.988c1.303,0,2.476,1.172,2.476,2.476v87.7c0,1.303-1.173,2.344-2.476,2.344h-3.127
			L230.44,59.47h-0.13v56.034c0,1.303-1.042,2.475-2.476,2.475h-11.858c-1.303,0-2.476-1.172-2.476-2.475V27.804z"/>
	</g>
	<g>
		<path fill="#FFFFFF" d="M588.091,27.812c0-1.303,1.173-2.345,2.476-2.345h3.258l54.209,57.597h0.131V29.246
			c0-1.303,1.042-2.476,2.476-2.476h11.988c1.303,0,2.476,1.172,2.476,2.476v87.699c0,1.303-1.173,2.346-2.476,2.346h-3.127
			l-54.47-59.812H604.9v56.033c0,1.303-1.042,2.477-2.476,2.477h-11.858c-1.303,0-2.476-1.174-2.476-2.477V27.812z"/>
	</g>
	<g>
		<path fill="#FFFFFF" d="M727.65,42.411c1.434,0,2.476-1.172,2.476-2.475V29.252c0-1.303-1.042-2.475-2.476-2.475h-53.032
			c-1.433,0-2.477,1.172-2.477,2.475v86.259c0,1.303,1.044,2.475,2.477,2.475h53.032c1.434,0,2.476-1.172,2.476-2.475v-10.686
			c0-1.303-1.042-2.475-2.476-2.475h-38.568V79.548v-6.926h32.041c1.304,0,2.476-1.043,2.476-2.477V59.331
			c0-1.303-1.172-2.475-2.476-2.475h-32.041V42.411H727.65z"/>
	</g>
	<g>
		<path fill="#FFFFFF" d="M395.586,74.064L365.875,30.54c-1.042-1.693,0-3.778,2.085-3.778h13.292c1.042,0,1.694,0.651,2.085,1.172
			l20.85,29.971l20.85-29.971c0.391-0.521,1.042-1.172,2.085-1.172h13.422c2.085,0,3.127,2.085,2.085,3.778l-30.102,43.393v41.57
			c0,1.303-1.173,2.475-2.476,2.475h-11.989c-1.433,0-2.476-1.172-2.476-2.475V74.064z"/>
	</g>
	<g>
		<g>
			<path fill="#FFFFFF" d="M563.972,29.195c0-1.303,1.173-2.476,2.476-2.476h12.119c1.303,0,2.476,1.172,2.476,2.476v86.265
				c0,1.303-1.173,2.477-2.476,2.477h-12.119c-1.303,0-2.476-1.174-2.476-2.477V29.195z"/>
		</g>
	</g>
	<g>
		<path fill="#FFFFFF" d="M206.223,114.589l-38.591-87.691c-0.376-0.782-0.877-1.434-2.13-1.434h-1.253
			c-1.128,0-1.754,0.651-2.13,1.434l-38.967,87.691c-0.752,1.695,0.25,3.389,2.13,3.389h10.901c2.004,0,3.132-1.303,3.633-2.605
			l1.638-3.756h46.467l1.638,3.756c0.877,1.822,1.754,2.605,3.633,2.605h10.901C205.972,117.978,206.974,116.285,206.223,114.589z
			 M153.044,84.619l11.329-26.449h0.376l12.529,28.667h-0.077l4.433,10.352h-33.996l5.347-12.57H153.044z"/>
	</g>
	<g>
		<path fill="#FFFFFF" d="M787.246,90.597c9.564-5.621,15.591-16.172,15.591-29.086c0-19.417-15.795-34.743-32.402-34.743h-13.653
			h-16.709h-0.177v0.016c-1.562,0.082-2.684,1.205-2.684,2.459v86.26c0,1.303,1.204,2.475,2.86,2.475h13.85
			c1.506,0,2.859-1.172,2.859-2.475v-20.49h11.761l12.637,21.793c0.301,0.52,1.054,1.172,2.407,1.172h15.809
			c2.559,0,3.612-2.086,2.559-3.777L787.246,90.597z M756.781,42.362h13.653v-0.025c8.127,0,15.121,8.208,15.121,19.174
			c0,10.967-5.88,19.538-15.121,19.538h-13.653V42.362z"/>
	</g>
</g>
</svg>
